<svg xmlns="http://www.w3.org/2000/svg" width="69.999" height="69.999" viewBox="0 0 69.999 69.999">
  <g id="Grupo_8" data-name="Grupo 8" transform="translate(-1464.236 -229)">
    <g id="Grupo_1" data-name="Grupo 1" transform="translate(1464.236 229)">
      <path id="Trazado_6" data-name="Trazado 6" d="M188.3,66.8a35,35,0,1,0-35,35A35.01,35.01,0,0,0,188.3,66.8Zm-65.8,0a30.8,30.8,0,1,1,30.8,30.8A30.817,30.817,0,0,1,122.5,66.8Z" transform="translate(-118.3 -31.8)" fill="#fff"/>
      <path id="Trazado_7" data-name="Trazado 7" d="M162.409,80.144l-2.76-5.52H144.081l3.864-6.845,3.533,3.754V64.686l-.994-1.1,3.423-7.066,11.924,21.53V68.44L154.018,46.8l-7.177,13.139-10.82-11.593V55.3l8.722,9.274L135.8,80.144Z" transform="translate(-116.478 -30.239)" fill="#e5e5e5"/>
    </g>
  </g>
</svg>
