<svg width="352" height="89" viewBox="0 0 352 89" fill="none" xmlns="http://www.w3.org/2000/svg">
<path d="M135.6 32.019L107.649 32.168V55.956H115.123V38.263H134.255C135.002 38.263 136.049 38.412 136.348 38.858C136.676 39.0741 136.953 39.3588 137.16 39.6926C137.368 40.0263 137.5 40.4011 137.548 40.791V42.575H143.527V39.602C143.6 38.6926 143.493 37.7777 143.21 36.9101C142.928 36.0425 142.477 35.2394 141.883 34.547C141.079 33.6983 140.102 33.033 139.018 32.5967C137.933 32.1604 136.767 31.9634 135.6 32.019Z" fill="white"/>
<path d="M189.859 32.168H182.385V50.009H161.459C159.665 50.009 158.47 49.709 158.47 48.076V32.168H150.996V49.268C150.996 51.201 151.896 52.539 153.388 54.026C154.883 55.661 157.274 55.959 160.264 55.959H189.864L189.859 32.168Z" fill="white"/>
<path d="M239.633 43.6161C237.6 42.7779 235.4 42.4216 233.206 42.5751H231.711V41.9801C236.195 41.9801 238.886 39.8991 238.886 35.4381L239.334 32.0181H231.711V35.4381C231.711 37.2221 231.411 38.7091 229.768 39.8981C228.345 41.006 226.632 41.6774 224.835 41.8311H204.806V23.2471H198.827V55.9561H204.806V48.5221H232.306C233.039 48.4437 233.78 48.5526 234.46 48.8385C235.139 49.1245 235.735 49.5781 236.192 50.1571C237.03 51.2669 237.454 52.634 237.392 54.0231C237.392 54.9151 237.243 55.9561 237.092 55.9561H245.014C245.163 55.9561 245.163 54.9151 245.163 54.0231C245.163 48.6711 243.22 45.6971 239.633 43.6161Z" fill="white"/>
<path d="M294.642 32.168H251.142V55.956H258.616V38.115H272.068V55.956H281.036V38.115H293.442C295.236 38.115 294.488 39.156 294.488 40.94V55.956H301.962V39.75C301.962 37.817 301.962 36.033 300.617 34.55C299.122 32.911 297.628 32.168 294.642 32.168Z" fill="white"/>
<path d="M350.839 37.8162C350.47 36.5098 349.682 35.3607 348.597 34.5452C346.603 32.9747 344.107 32.1822 341.572 32.3152H310.93V38.2622H339.93C340.336 38.202 340.751 38.2535 341.13 38.4112C342.475 38.8572 342.475 39.8982 342.475 41.6822V41.0872H318.255C317.208 41.0637 316.166 41.2488 315.191 41.6316C314.216 42.0145 313.327 42.5874 312.575 43.3172C311.866 44.0709 311.315 44.9594 310.955 45.9299C310.596 46.9004 310.435 47.9333 310.482 48.9672C310.434 49.9337 310.596 50.8991 310.958 51.7969C311.319 52.6946 311.871 53.5033 312.575 54.1672C313.92 55.5052 315.863 55.8022 318.255 55.8022H351.288V41.6832C351.333 40.379 351.181 39.0754 350.839 37.8162ZM342.319 51.4942H320.048C319.739 51.5288 319.427 51.4962 319.132 51.3986C318.837 51.3011 318.566 51.1409 318.339 50.9291C318.112 50.7173 317.933 50.4588 317.815 50.1714C317.697 49.884 317.643 49.5745 317.656 49.2642C317.631 48.9507 317.677 48.6355 317.79 48.3423C317.904 48.049 318.083 47.7853 318.313 47.5708C318.543 47.3563 318.818 47.1966 319.119 47.1037C319.419 47.0108 319.737 46.987 320.048 47.0342H342.319V51.4942Z" fill="white"/>
<path d="M171.623 38.1141C173.357 38.1141 174.762 36.7164 174.762 34.9921C174.762 33.2679 173.357 31.8701 171.623 31.8701C169.889 31.8701 168.484 33.2679 168.484 34.9921C168.484 36.7164 169.889 38.1141 171.623 38.1141Z" fill="white"/>
<path d="M107.798 64.4302H110.489C111.197 64.4351 111.901 64.536 112.582 64.7302C113.136 64.9895 113.642 65.3416 114.077 65.7712C114.414 66.2178 114.667 66.7216 114.824 67.2582C115.223 68.465 115.223 69.7683 114.824 70.9752C114.638 71.5467 114.387 72.0952 114.077 72.6102C113.682 73.0861 113.165 73.4459 112.582 73.6512C111.879 73.9705 111.112 74.1232 110.34 74.0972H107.649V64.4302H107.798ZM110.638 65.9172H109.592V72.1612H110.492C110.953 72.1327 111.407 72.0314 111.837 71.8612C112.155 71.6936 112.415 71.4348 112.584 71.1182C112.76 70.7834 112.91 70.4354 113.032 70.0772C113.155 69.6935 113.205 69.2903 113.181 68.8882C113.205 68.5346 113.154 68.1798 113.032 67.8472C113.015 67.4571 112.855 67.0869 112.584 66.8062C112.415 66.4896 112.155 66.2308 111.837 66.0632C111.535 66.0652 111.087 65.9172 110.638 65.9172Z" fill="white"/>
<path d="M149.8 64.4302H151.594V73.7972H149.8V64.4302Z" fill="white"/>
<path d="M189.858 68.891H193.296V73.054C192.881 73.3576 192.429 73.6073 191.951 73.797C191.462 73.9132 190.959 73.9633 190.456 73.946C189.896 73.9319 189.341 73.8307 188.812 73.646C188.301 73.4565 187.84 73.1512 187.467 72.754C187.031 72.3549 186.718 71.8387 186.567 71.267C186.374 70.5392 186.273 69.79 186.267 69.037C186.241 68.2689 186.394 67.5054 186.715 66.807C186.938 66.234 187.297 65.7237 187.761 65.32C188.134 64.9228 188.595 64.6175 189.106 64.428C189.635 64.2433 190.19 64.1421 190.75 64.128C191.204 64.0852 191.662 64.1359 192.095 64.277C192.449 64.357 192.798 64.4572 193.141 64.577L192.693 66.064C192.463 65.9439 192.204 65.8922 191.946 65.915H190.9C190.544 65.88 190.186 65.9311 189.854 66.064C189.522 66.2087 189.217 66.41 188.954 66.659C188.669 66.9493 188.462 67.3076 188.354 67.7C188.155 68.6813 188.155 69.6927 188.354 70.674C188.462 71.0664 188.669 71.4247 188.954 71.715C189.131 71.9899 189.394 72.1989 189.701 72.31C189.985 72.4318 190.293 72.483 190.601 72.459C190.859 72.4818 191.118 72.4301 191.348 72.31C191.574 72.2727 191.783 72.1681 191.948 72.01V70.233L189.855 70.084V68.895L189.858 68.891Z" fill="white"/>
<path d="M227.974 64.4302H229.768V73.7972H227.974V64.4302Z" fill="white"/>
<path d="M271.321 66.0652H268.63V73.7962H266.836V66.0652H264.146V64.4302H271.47V66.0652H271.321Z" fill="white"/>
<path d="M308.988 71.7152H306.148L305.401 73.7962H303.607L307.045 64.4292H308.39L311.828 73.7962H309.885L308.988 71.7152ZM306.596 70.2282H308.539L307.792 68.1472L307.492 66.6602L307.192 68.1472L306.596 70.2282Z" fill="white"/>
<path d="M351.587 73.7972H345.608V64.4302H347.402V72.1612H351.587V73.7972Z" fill="white"/>
<path d="M88.884 44.442C88.884 35.6522 86.2775 27.0598 81.3942 19.7514C76.5108 12.4429 69.57 6.74667 61.4492 3.38296C53.3285 0.0192544 44.3927 -0.860843 35.7718 0.853961C27.1509 2.56877 19.2321 6.80145 13.0168 13.0168C6.80145 19.2321 2.56876 27.1509 0.85396 35.7718C-0.860844 44.3927 0.0192573 53.3285 3.38297 61.4492C6.74668 69.5699 12.4429 76.5108 19.7514 81.3942C27.0598 86.2775 35.6522 88.884 44.442 88.884C56.2276 88.8803 67.5295 84.1968 75.8632 75.8632C84.1969 67.5295 88.8803 56.2276 88.884 44.442ZM5.32702 44.442C5.32702 36.7058 7.62108 29.1433 11.9191 22.7109C16.2171 16.2785 22.326 11.265 29.4734 8.30447C36.6207 5.34395 44.4854 4.56934 52.073 6.0786C59.6605 7.58786 66.6302 11.3132 72.1005 16.7835C77.5708 22.2539 81.2962 29.2235 82.8054 36.8111C84.3147 44.3986 83.5401 52.2634 80.5796 59.4107C77.619 66.558 72.6056 72.6669 66.1731 76.965C59.7407 81.263 52.1782 83.557 44.442 83.557C34.0693 83.553 24.1226 79.4307 16.7879 72.0961C9.4533 64.7615 5.331 54.8147 5.32702 44.442Z" fill="#697FDD"/>
<path d="M58.3209 63.3678L54.8209 56.3578H35.0489L39.9559 47.6658L44.4419 52.4328V43.7408L43.1799 42.3408L47.5259 33.3678L62.6669 60.7058V48.5058L47.6669 21.0278L38.5539 37.7118L24.8139 22.9918V31.8288L35.8889 43.6048L24.5339 63.3678H58.3209Z" fill="#697FDD"/>
</svg>
