<svg xmlns="http://www.w3.org/2000/svg" width="182.015" height="38.143" viewBox="0 0 182.015 38.143">
  <g id="Grupo_6" data-name="Grupo 6" transform="translate(-315 -189.539)">
    <g id="Grupo_6-2" data-name="Grupo 6" transform="translate(315 189.539)">
      <g id="Grupo_4" data-name="Grupo 4" transform="translate(0 0)">
        <path id="Trazado_1" data-name="Trazado 1" d="M88.856,104.9,68,105.012v17.845h5.576V109.584H87.852c.558,0,1.338.112,1.561.446a2.037,2.037,0,0,1,.892,1.45v1.338h4.461v-2.231A5.2,5.2,0,0,0,93.54,106.8,6.043,6.043,0,0,0,88.856,104.9Z" transform="translate(-68 -98.32)" fill="#e5e5e5"/>
        <path id="Trazado_2" data-name="Trazado 2" d="M126,105h-5.576v13.383H104.807c-1.338,0-2.231-.223-2.231-1.45V105H97v12.826a4.835,4.835,0,0,0,1.784,3.569c1.115,1.227,2.9,1.45,5.13,1.45H126Z" transform="translate(-64.657 -98.308)" fill="#e5e5e5"/>
        <path id="Trazado_3" data-name="Trazado 3" d="M159.447,114.279a10.585,10.585,0,0,0-4.8-.781h-1.115v-.446c3.346,0,5.353-1.561,5.353-4.907l.335-2.565h-5.688v2.565a3.645,3.645,0,0,1-1.45,3.346,6.935,6.935,0,0,1-3.68,1.45H133.461V99H129v24.536h4.461V117.96h20.521a3.245,3.245,0,0,1,2.9,1.227,4.5,4.5,0,0,1,.892,2.9c0,.669-.112,1.45-.223,1.45h5.911c.112,0,.112-.781.112-1.45C163.574,118.071,162.124,115.841,159.447,114.279Z" transform="translate(-60.967 -99)" fill="#e5e5e5"/>
        <path id="Trazado_4" data-name="Trazado 4" d="M196.455,105H164v17.845h5.576V109.461h10.038v13.383h6.692V109.461h9.257c1.338,0,.781.781.781,2.119v11.264h5.576V110.688c0-1.45,0-2.788-1-3.9A5.209,5.209,0,0,0,196.455,105Z" transform="translate(-56.932 -98.308)" fill="#e5e5e5"/>
        <path id="Trazado_5" data-name="Trazado 5" d="M233.813,109.227a4.649,4.649,0,0,0-1.673-2.454A7.782,7.782,0,0,0,226.9,105.1H204.035v4.461h21.637a1.679,1.679,0,0,1,.892.112c1,.335,1,1.115,1,2.454v-.446H209.5a5.881,5.881,0,0,0-4.238,1.673,5.818,5.818,0,0,0-1.561,4.238,5.034,5.034,0,0,0,1.561,3.9c1,1,2.454,1.227,4.238,1.227h24.648v-10.6A9.821,9.821,0,0,0,233.813,109.227Zm-6.357,10.261H210.838a1.611,1.611,0,0,1-1.784-1.673,1.561,1.561,0,0,1,1.784-1.673h16.618Z" transform="translate(-52.355 -98.297)" fill="#e5e5e5"/>
        <circle id="Elipse_1" data-name="Elipse 1" cx="2.342" cy="2.342" r="2.342" transform="translate(45.392 6.469)" fill="#fff"/>
      </g>
    </g>
    <g id="Grupo_7" data-name="Grupo 7" transform="translate(315 220.209)">
      <path id="Trazado_8" data-name="Trazado 8" d="M68.112,126.7h2.008a5.814,5.814,0,0,1,1.561.223,4.006,4.006,0,0,1,1.115.781,3.489,3.489,0,0,1,.558,1.115,4.462,4.462,0,0,1,0,2.788,5.978,5.978,0,0,1-.558,1.227,2.55,2.55,0,0,1-1.115.781,3.724,3.724,0,0,1-1.673.335H68V126.7Zm2.119,1.115H69.45V132.5h.669a3.257,3.257,0,0,0,1-.223,1.344,1.344,0,0,0,.558-.558,5.437,5.437,0,0,0,.335-.781,2.456,2.456,0,0,0,.112-.892,1.9,1.9,0,0,0-.112-.781,1.2,1.2,0,0,0-.335-.781,1.344,1.344,0,0,0-.558-.558C70.9,127.927,70.565,127.815,70.231,127.815Z" transform="translate(-68 -126.477)" fill="#fff"/>
      <path id="Trazado_9" data-name="Trazado 9" d="M96.2,126.7h1.338v7.026H96.2Z" transform="translate(-64.749 -126.477)" fill="#fff"/>
      <path id="Trazado_10" data-name="Trazado 10" d="M123.277,130.069h2.565v3.123a4.521,4.521,0,0,1-1,.558,4.184,4.184,0,0,1-1.115.112,4.01,4.01,0,0,1-1.227-.223,2.634,2.634,0,0,1-1-.669,2.314,2.314,0,0,1-.669-1.115,6.751,6.751,0,0,1-.223-1.673,3.724,3.724,0,0,1,.335-1.673,2.847,2.847,0,0,1,.781-1.115,2.634,2.634,0,0,1,1-.669,4.01,4.01,0,0,1,1.227-.223,2.476,2.476,0,0,1,1,.112,7.1,7.1,0,0,1,.781.223l-.335,1.115a1,1,0,0,0-.558-.112h-.781a1.653,1.653,0,0,0-.781.112,2.333,2.333,0,0,0-.669.446,1.8,1.8,0,0,0-.446.781,5.633,5.633,0,0,0,0,2.231,1.8,1.8,0,0,0,.446.781,1.113,1.113,0,0,0,.558.446,1.415,1.415,0,0,0,.669.112,1,1,0,0,0,.558-.112.846.846,0,0,0,.446-.223v-1.338l-1.561-.112v-.892Z" transform="translate(-61.936 -126.5)" fill="#fff"/>
      <path id="Trazado_11" data-name="Trazado 11" d="M148.5,126.7h1.338v7.026H148.5Z" transform="translate(-58.719 -126.477)" fill="#fff"/>
      <path id="Trazado_12" data-name="Trazado 12" d="M178.053,127.927h-2.008v5.8h-1.338v-5.8H172.7V126.7h5.465v1.227Z" transform="translate(-55.929 -126.477)" fill="#fff"/>
      <path id="Trazado_13" data-name="Trazado 13" d="M203.115,132.165H201l-.558,1.561H199.1l2.565-7.026h1l2.565,7.026h-1.45Zm-1.784-1.115h1.45l-.558-1.561L202,128.373h0l-.223,1.115Z" transform="translate(-52.886 -126.477)" fill="#fff"/>
      <path id="Trazado_14" data-name="Trazado 14" d="M231.661,133.726H227.2V126.7h1.338v5.8h3.123Z" transform="translate(-49.646 -126.477)" fill="#fff"/>
    </g>
  </g>
</svg>
