<?xml version="1.0" encoding="utf-8"?>
<!-- Generator: Adobe Illustrator 23.1.0, SVG Export Plug-In . SVG Version: 6.00 Build 0)  -->
<svg version="1.1" id="Grupo_25" xmlns="http://www.w3.org/2000/svg" xmlns:xlink="http://www.w3.org/1999/xlink" x="0px" y="0px"
	 viewBox="0 0 1540.5 1564.6" style="enable-background:new 0 0 1540.5 1564.6;" xml:space="preserve">
<style type="text/css">
	.st0{opacity:0.1;}
	.st1{fill:none;stroke:#FFFFFF;}
</style>
<g>
	<g id="Enmascarar_grupo_1">
		<g id="Grupo_10" transform="translate(-88 -92)" class="st0">
			<path id="Trazado_6" class="st1" d="M1617.5,876.2c0-422.2-342.6-764.8-764.8-764.8S88,454,88,876.2s342.6,764.8,764.8,764.8
				S1617.5,1298.3,1617.5,876.2z M179.7,876.2c0-371.5,301.6-673.1,673.1-673.1s673.1,301.6,673.1,673.1s-301.6,673.1-673.1,673.1
				S179.7,1245.3,179.7,876.2z"/>
			<path id="Trazado_7" class="st1" d="M1091.6,1201.8l-60.3-120.6H691.1l84.4-149.6l77.2,82V864.1L831,840l74.8-154.4l260.5,470.4
				V946.1L908.2,473.3L751.4,760.4L515,507v152l190.6,202.6l-195.4,340.2H1091.6z"/>
		</g>
	</g>
</g>
</svg>
